<?xml version="1.0" encoding="UTF-8" standalone="no"?>
<!-- Created with Inkscape (http://www.inkscape.org/) -->

<svg
   xmlns:dc="http://purl.org/dc/elements/1.1/"
   xmlns:cc="http://creativecommons.org/ns#"
   xmlns:rdf="http://www.w3.org/1999/02/22-rdf-syntax-ns#"
   xmlns:svg="http://www.w3.org/2000/svg"
   xmlns="http://www.w3.org/2000/svg"
   xmlns:sodipodi="http://sodipodi.sourceforge.net/DTD/sodipodi-0.dtd"
   xmlns:inkscape="http://www.inkscape.org/namespaces/inkscape"
   width="210mm"
   height="297mm"
   viewBox="0 0 210 297"
   version="1.1"
   id="svg6644"
   inkscape:version="0.92.4 (5da689c313, 2019-01-14)"
   sodipodi:docname="drawing.svg">
  <defs
     id="defs6638" />
  <sodipodi:namedview
     id="base"
     pagecolor="#ffffff"
     bordercolor="#666666"
     borderopacity="1.0"
     inkscape:pageopacity="0.0"
     inkscape:pageshadow="2"
     inkscape:zoom="1.4"
     inkscape:cx="350.59921"
     inkscape:cy="556.76385"
     inkscape:document-units="mm"
     inkscape:current-layer="layer1"
     showgrid="false"
     inkscape:window-width="1366"
     inkscape:window-height="715"
     inkscape:window-x="-8"
     inkscape:window-y="-8"
     inkscape:window-maximized="1" />
  <metadata
     id="metadata6641">
    <rdf:RDF>
      <cc:Work
         rdf:about="">
        <dc:format>image/svg+xml</dc:format>
        <dc:type
           rdf:resource="http://purl.org/dc/dcmitype/StillImage" />
        <dc:title></dc:title>
      </cc:Work>
    </rdf:RDF>
  </metadata>
  <g
     inkscape:label="Layer 1"
     inkscape:groupmode="layer"
     id="layer1">
    <rect
       style="opacity:0.98000004;fill:#721a8d;fill-opacity:0.99607843;stroke:none;stroke-width:0.19469301;stroke-linecap:round;stroke-miterlimit:4;stroke-dasharray:none;stroke-opacity:1"
       id="rect6709"
       width="38.044292"
       height="38.044292"
       x="84.966881"
       y="121.30671"
       inkscape:export-xdpi="205.63403"
       inkscape:export-ydpi="205.63403" />
    <path
       style="opacity:1;fill:#f600e1;fill-opacity:1;stroke-width:0.15751049"
       d="m 104.62815,132.46555 c -0.0224,-0.005 -0.0474,-0.005 -0.0746,5.2e-4 -0.20589,0.038 -0.27385,0.21099 -0.27385,0.69693 0,0.6023 -0.0881,0.73113 -1.28932,1.88486 -0.70912,0.68111 -1.52502,1.34971 -1.8131,1.48557 -0.28808,0.13584 -0.52379,0.30832 -0.52379,0.38334 0,0.23196 -0.35609,0.15059 -0.58139,-0.13289 -0.117746,-0.14817 -0.216348,-0.45549 -0.219395,-0.68281 -0.0064,-0.51585 -0.285608,-1.23613 -0.538895,-1.38996 -0.310374,-0.1885 -1.023972,-0.13741 -1.219123,0.0872 -0.347561,0.40001 -0.128875,1.79316 0.281409,1.79316 0.08135,0 0.183665,0.0894 0.227581,0.19873 0.06291,0.15657 -0.249824,0.1852 -1.473462,0.1347 -0.854367,-0.0353 -1.734724,-0.13712 -1.956327,-0.2261 -0.221601,-0.089 -0.700436,-0.1442 -1.064255,-0.12267 -1.051858,0.0622 -1.977072,-0.23705 -2.092624,-0.6768 -0.149576,-0.56925 -0.510379,-0.79723 -0.809287,-0.51172 -0.21663,0.20692 -0.2072,0.29031 0.08688,0.76639 0.259542,0.42017 0.519519,0.59121 1.218179,0.80156 0.4885,0.14709 0.888295,0.33307 0.888295,0.41342 0,0.0803 0.145049,0.14612 0.32233,0.14612 0.320225,0 0.419273,0.16386 0.216251,0.35778 -0.05832,0.0557 -0.217207,0.0152 -0.353179,-0.0899 -0.204595,-0.15811 -0.222601,-0.15196 -0.10419,0.0355 0.387523,0.61346 -0.199079,2.01052 -1.12847,2.68762 l -0.585166,0.42634 0.10608,-0.5397 c 0.08517,-0.43362 0.03706,-0.6056 -0.24458,-0.87462 -0.340016,-0.32476 -0.360227,-0.32644 -0.674564,-0.0548 -0.24358,0.21056 -0.302716,0.40494 -0.238599,0.78232 0.101211,0.59573 0.01535,0.61648 -0.601221,0.14523 -0.428047,-0.32716 -0.447647,-0.38532 -0.247413,-0.73061 0.119626,-0.20629 0.224885,-0.40954 0.234193,-0.4519 0.125202,-0.56956 0.441201,-1.38161 0.63081,-1.62117 0.310311,-0.39206 0.314009,-0.68792 0.0085,-0.68792 -0.132961,0 -0.247245,0.052 -0.254023,0.11546 -0.04582,0.42896 -0.163963,0.70388 -0.490734,1.14222 l -0.372065,0.49909 -0.09349,-0.37793 c -0.0514,-0.20799 -0.180899,-0.37824 -0.287703,-0.37824 -0.243329,0 -0.248106,0.0303 -0.113634,0.71498 0.127175,0.64751 -0.312949,1.51077 -0.620422,1.21708 -0.118478,-0.11316 -0.110992,-0.2175 0.02423,-0.34666 0.311107,-0.29716 0.239308,-0.99937 -0.111114,-1.08689 -0.499775,-0.12484 -0.729392,0.13234 -0.736574,0.82561 -0.0074,0.71617 -0.17376,0.85558 -0.628921,0.52676 -0.283917,-0.2051 -0.286472,-0.26031 -0.04785,-1.03367 0.354781,-1.14981 0.450427,-3.35898 0.150148,-3.46904 -0.38544,-0.14128 -0.632235,0.22418 -0.395673,0.58598 0.310898,0.47552 0.07681,2.07284 -0.377729,2.57758 l -0.361362,0.40109 -0.340273,-0.53338 c -0.18724,-0.2934 -0.368058,-0.60264 -0.401652,-0.68731 -0.03944,-0.0994 -0.127021,-0.0952 -0.247099,0.0121 -0.139093,0.12422 -0.103054,0.26665 0.142594,0.56494 0.596372,0.72418 0.561405,1.8335 -0.05068,1.60914 -0.156595,-0.0574 -0.241956,-0.27263 -0.232619,-0.58628 0.01022,-0.34344 -0.09954,-0.58419 -0.35727,-0.78353 -0.462041,-0.35736 -0.681551,-0.29576 -0.882628,0.24774 -0.120021,0.32441 -0.09221,0.53089 0.119929,0.88395 0.359782,0.59878 0.124839,1.12776 -0.440687,0.99218 -0.505445,-0.12116 -1.331,0.59482 -1.430021,1.24024 -0.04101,0.26726 -0.155732,0.61362 -0.25497,0.76969 -0.138725,0.21818 -0.158308,0.017 -0.08467,-0.87071 0.05267,-0.63501 0.1195,-1.22969 0.148574,-1.32141 0.02907,-0.0917 -0.03466,-0.16687 -0.141649,-0.16687 -0.114919,0 -0.173423,0.16284 -0.143222,0.39778 0.02812,0.21872 -0.08631,0.67486 -0.254023,1.01353 l -0.304704,0.61576 -0.176902,-0.42334 c -0.09733,-0.23284 -0.28759,-0.42333 -0.422744,-0.42333 -0.274062,0 -0.335496,0.39072 -0.08467,0.53879 0.315366,0.18616 0.167039,0.39867 -0.161165,0.23091 -0.348831,-0.17833 -0.40619,-0.46591 -0.176904,-0.88726 0.340509,-0.62574 0.516789,-1.56485 0.46933,-2.49941 -0.04702,-0.92587 -0.07989,-1.0047 -0.441629,-1.05351 -0.38645,-0.0521 -0.38761,-0.0479 -0.113634,0.35147 0.242361,0.35331 0.253413,0.51791 0.08971,1.31269 -0.267495,1.2987 -1.277358,2.10144 -1.277358,1.01533 0,-0.19629 -0.114891,-0.44794 -0.255281,-0.55923 -0.410003,-0.32501 -0.79229,0.017 -0.79229,0.70897 0,0.70681 -0.248992,0.83531 -0.523786,0.27029 -0.248834,-0.51164 -0.254679,-0.93085 -0.02172,-1.56915 0.09889,-0.27096 0.131159,-0.53919 0.07177,-0.59592 -0.149188,-0.1425 -0.400489,0.27842 -0.306276,0.51293 0.04216,0.10495 0.0069,0.23199 -0.07838,0.28232 -0.169544,0.1001 -0.672675,-0.97041 -0.672675,-1.43114 0,-0.16731 -0.151095,-0.32528 -0.362621,-0.37944 -0.613238,-0.15697 -0.673649,-0.11037 -0.322015,0.24925 0.186271,0.19049 0.454757,0.8259 0.596499,1.4122 0.282199,1.16728 0.188698,1.38878 -0.514972,1.22009 l -0.36388,-0.0872 v 4.01895 4.01925 h 29.009671 29.00967 v -4.07938 c 0,-2.55279 -0.0588,-4.07938 -0.15739,-4.07938 -0.0866,0 -0.27174,0.1665 -0.41141,0.37011 -0.423,0.61664 -0.98551,0.6445 -1.54114,0.0764 -0.45628,-0.46656 -0.46606,-0.50437 -0.21908,-0.86441 0.27808,-0.40537 0.19859,-0.90616 -0.11458,-0.72129 -0.12925,0.0763 -0.15603,0.0278 -0.0837,-0.15213 0.0584,-0.14527 0.0412,-0.22573 -0.038,-0.17889 -0.0793,0.0469 -0.19404,0.43134 -0.25497,0.85448 -0.0609,0.42313 -0.18081,0.81072 -0.26661,0.86139 -0.0858,0.0507 -0.22246,0.25868 -0.30344,0.46212 -0.081,0.20344 -0.2045,0.36982 -0.27481,0.36982 -0.22073,0 -1.81435,-1.57525 -1.81435,-1.79345 0,-0.1143 -0.0544,-0.21303 -0.12088,-0.21948 -0.0665,-0.007 -0.23904,-0.0339 -0.3834,-0.0607 -0.17833,-0.0332 -0.23968,0.0343 -0.19138,0.21077 0.0778,0.28435 -0.87181,1.72949 -1.20213,1.82923 -0.11308,0.0342 -0.50228,-0.22151 -0.86501,-0.56796 -0.36271,-0.34645 -0.72351,-0.62989 -0.80172,-0.62989 -0.25929,0 -0.14726,0.42686 0.13975,0.53248 0.26491,0.0975 0.26399,0.1137 -0.0157,0.26368 -0.24679,0.1323 -0.27993,0.27368 -0.19327,0.82562 l 0.10482,0.66627 -0.588,-0.51444 c -0.47295,-0.41385 -0.56565,-0.58464 -0.47468,-0.87462 0.12666,-0.40385 1.70536,-3.2286 2.137,-3.82382 l 0.27889,-0.38485 -0.43093,0.26548 c -0.31936,0.19659 -0.45204,0.21655 -0.51119,0.077 -0.044,-0.10365 -0.0855,0.0128 -0.0926,0.25887 -0.007,0.24601 -0.20721,0.69048 -0.44477,0.98797 -0.79547,0.99617 -1.7932,2.0067 -1.8899,1.91432 -0.0527,-0.0503 -0.0957,-0.35431 -0.0957,-0.67589 0,-0.69359 -0.42772,-1.02522 -0.96698,-0.74954 -0.37138,0.18984 -0.39423,0.37239 -0.13599,1.07997 0.16758,0.45916 0.14958,0.53832 -0.17911,0.79255 -0.60915,0.47114 -0.73769,0.35244 -0.95471,-0.88124 -0.12112,-0.68847 -0.29452,-1.19685 -0.42432,-1.24444 -0.12067,-0.0442 -0.18178,-0.17439 -0.13567,-0.28924 0.0461,-0.11485 0.008,-0.33406 -0.0856,-0.48737 -0.1599,-0.26259 -0.17075,-0.2609 -0.18602,0.0291 l -0.0164,0.30788 -0.13851,-0.30788 c -0.12609,-0.28027 -0.13954,-0.27284 -0.14983,0.0845 -0.0112,0.38871 -0.78333,1.68582 -1.0035,1.68582 -0.211,0 -0.33117,-0.6449 -0.15204,-0.816 0.0974,-0.0931 0.17591,-0.24213 0.1747,-0.33103 -10e-4,-0.0889 -0.0716,-0.0575 -0.15613,0.0695 -0.12675,0.19029 -0.21085,0.19708 -0.47878,0.0385 -0.17878,-0.10584 -0.47749,-0.19242 -0.66385,-0.19242 -0.42988,0 -1.60201,1.04595 -1.48857,1.32832 0.0466,0.11605 0.0144,0.21107 -0.0715,0.21107 -0.0859,0 -0.12456,0.15669 -0.0862,0.34816 0.0395,0.19754 -0.14177,0.74688 -0.41896,1.27 l -0.48853,0.92183 -0.006,-0.83704 c -0.003,-0.46026 0.10968,-1.2788 0.25151,-1.81901 0.14186,-0.5402 0.21034,-1.0276 0.15235,-1.08298 -0.12509,-0.11949 -0.42003,0.28967 -0.32012,0.44407 0.0378,0.0585 -0.0396,0.39964 -0.17187,0.75797 -0.13237,0.35833 -0.2408,0.81582 -0.2408,1.01684 0,0.40753 -0.23721,0.49153 -0.38057,0.1347 -0.051,-0.127 -0.0103,-0.23091 0.0904,-0.23091 0.10063,0 0.12924,-0.0512 0.0639,-0.11365 -0.0653,-0.0624 -0.24052,-0.11429 -0.38938,-0.11545 -0.54958,-0.004 -0.40372,-0.76157 0.34468,-1.79135 0.39231,-0.5398 0.84143,-1.22382 0.99816,-1.52015 0.15672,-0.29633 0.3293,-0.57339 0.38339,-0.61575 0.0541,-0.0423 0.19784,-0.1982 0.3195,-0.34636 0.19584,-0.2385 0.18143,-0.26939 -0.12497,-0.26939 -0.22569,0 -0.40226,0.14123 -0.50773,0.40618 -0.0889,0.22345 -0.32275,0.5987 -0.5197,0.83404 -0.19694,0.23536 -0.53599,0.71069 -0.75325,1.05623 -0.40407,0.64262 -0.65252,0.79867 -0.65252,0.4098 0,-0.12014 -0.12692,-0.4315 -0.28205,-0.69182 -0.37677,-0.63226 -0.91215,-0.63216 -1.31481,3e-4 l -0.3025,0.47564 -0.63395,-1.20986 c -0.34868,-0.66538 -0.60652,-1.28844 -0.5729,-1.38485 0.0829,-0.23766 -0.23528,-0.40625 -0.54959,-0.29104 -0.23056,0.0845 -0.23122,0.12016 -0.008,0.35989 0.1362,0.14641 0.36209,0.53107 0.50206,0.85479 0.24382,0.56381 0.23827,0.61952 -0.13252,1.3184 -0.21288,0.40127 -0.50163,0.82027 -0.64151,0.93115 -0.13988,0.11088 -0.25434,0.28421 -0.25434,0.38545 0,0.10123 -0.22981,0.47001 -0.51088,0.8193 -0.42076,0.5229 -0.56308,0.60846 -0.80582,0.48437 -0.18135,-0.0927 -0.29494,-0.32222 -0.29494,-0.59621 0,-0.41946 -0.34918,-0.92905 -0.63648,-0.92905 -0.0715,0 -0.22293,0.10706 -0.33682,0.23813 -0.17009,0.19576 -0.15969,0.33316 0.0582,0.76969 0.14589,0.29227 0.19758,0.53157 0.1149,0.53157 -0.34205,0 -1.77286,-2.19861 -1.78352,-2.74053 -0.003,-0.14369 -0.10574,-0.38814 -0.22884,-0.5433 -0.21625,-0.27256 -0.22956,-0.27222 -0.39032,0.0147 -0.11493,0.20491 -0.11426,0.34697 0.002,0.45791 0.0926,0.0884 0.36834,0.70668 0.61287,1.37403 0.24453,0.66734 0.51868,1.35038 0.60908,1.51774 0.44555,0.8247 0.85653,1.81237 0.78348,1.88214 -0.0451,0.0431 -0.16812,-0.10253 -0.27354,-0.32351 -0.10541,-0.22097 -0.32105,-0.44118 -0.4794,-0.48918 -0.15835,-0.048 -0.31042,-0.26743 -0.33807,-0.48768 -0.10553,-0.84096 -1.09794,-0.88742 -1.09794,-0.0514 0,0.76095 -0.38904,0.59057 -0.51623,-0.2261 -0.0264,-0.16933 -0.10543,-0.34856 -0.17564,-0.39808 -0.23177,-0.1635 0.17907,-1.42646 0.56093,-1.72429 0.20489,-0.15979 0.28205,-0.24562 0.17124,-0.19093 -0.25025,0.12351 -0.2551,0.004 -0.017,-0.42934 0.18265,-0.33267 0.18127,-0.33323 -0.15677,-0.0466 -0.18791,0.15933 -0.38563,0.43642 -0.43941,0.61576 -0.62746,2.09368 -1.06063,2.03368 -0.63113,-0.0875 0.24943,-1.23184 0.36572,-1.50611 0.82754,-1.94919 0.29562,-0.28363 0.53763,-0.57804 0.53763,-0.65424 0,-0.0762 0.1088,-0.13861 0.24176,-0.13861 0.14657,0 0.24174,-0.14302 0.24174,-0.3632 0,-0.19973 0.22449,-0.77123 0.49892,-1.27 0.55276,-1.00461 0.75016,-2.11621 0.41362,-2.18491 z m -9.906908,5.43175 c 0.06942,-3.5e-4 0.134697,0.0193 0.190754,0.0637 0.125294,0.0993 0.289958,0.1644 0.365768,0.14462 0.07581,-0.0198 0.474,0.0156 0.884834,0.0785 1.106204,0.16926 1.27597,0.43441 1.384066,2.16506 0.09933,1.59023 0.0799,1.62425 -0.743185,1.30969 -0.359932,-0.13755 -0.36776,-0.16516 -0.120873,-0.42574 0.480777,-0.50743 0.22165,-1.10102 -0.480662,-1.10102 -0.266597,0 -0.384871,0.11779 -0.463979,0.46181 -0.05841,0.254 -0.154922,0.45995 -0.214362,0.45762 -0.136623,-0.005 -0.672044,-1.10474 -0.672044,-1.38034 0,-0.11341 -0.04702,-0.16136 -0.104506,-0.10644 -0.166401,0.15894 -0.701319,-0.5235 -0.701319,-0.89477 0,-0.39131 0.37467,-0.77113 0.675508,-0.77271 z m 14.835348,0.30338 c 0.2403,0.0135 0.65192,1.0314 0.63301,1.62357 -0.0406,1.27266 -0.12555,1.67896 -0.41487,1.98467 -0.16886,0.17844 -0.3683,0.32442 -0.44321,0.32442 -0.129,-1e-5 -0.20592,-0.46274 -0.14762,-0.88756 0.0147,-0.10714 -0.19628,-0.23752 -0.4687,-0.28954 -0.41408,-0.0791 -0.47812,-0.14814 -0.39064,-0.42093 0.19009,-0.59267 1.02531,-2.22842 1.18639,-2.32351 0.0143,-0.008 0.0297,-0.0121 0.0456,-0.0111 z m 9.34095,0.64431 c 0.28735,-0.0229 0.45108,0.27827 0.45108,0.85599 0,0.47885 -0.0575,0.58509 -0.31667,0.58509 -0.35404,-1e-5 -0.63204,0.3987 -0.56313,0.80758 0.0866,0.51407 -0.22356,0.42312 -0.41142,-0.12057 -0.1558,-0.45095 -0.14384,-0.63797 0.0677,-1.06374 0.14116,-0.28413 0.25655,-0.59034 0.25655,-0.6804 0,-0.09 0.13408,-0.23201 0.29778,-0.31569 0.079,-0.0404 0.15182,-0.063 0.21813,-0.0683 z m -25.043819,0.21197 c 0.115499,-0.0212 0.201478,0.22641 0.172812,0.67168 -0.02826,0.43885 0.05411,0.81593 0.235452,1.08028 0.272931,0.39787 0.269399,0.41399 -0.170293,0.78352 -0.578786,0.48645 -0.750961,0.48327 -0.621051,-0.0111 0.134894,-0.51338 -0.02492,-0.98738 -0.333033,-0.98738 -0.197995,0 -0.18535,-0.0768 0.07019,-0.42333 0.171687,-0.23283 0.362709,-0.57919 0.424632,-0.76969 0.07202,-0.22157 0.151988,-0.33124 0.221286,-0.34396 z m 33.393229,0.74384 0.88577,0.80728 c 0.48715,0.44409 0.88415,0.84771 0.88232,0.89687 -0.002,0.0492 -0.12889,0.23337 -0.28204,0.4092 -0.43087,0.49468 -0.77016,0.31403 -0.8011,-0.42664 -0.0281,-0.67201 -0.26138,-0.93961 -0.7265,-0.83313 -0.33049,0.0756 -0.32964,0.079 -0.12024,-0.44708 z m -37.658432,0.7285 c 0.0409,0.008 0.08664,0.0945 0.167461,0.24895 0.102024,0.19498 0.273505,0.54499 0.380878,0.77782 0.20868,0.4525 0.20294,0.45548 -0.563447,0.31449 -0.40859,-0.0752 -0.441102,-0.24563 -0.182569,-0.954 0.100779,-0.27614 0.145095,-0.39708 0.197677,-0.38726 z m -13.58821,0.21859 c 0.08586,0 0.156128,0.1039 0.156128,0.2309 0,0.12701 -0.02844,0.23091 -0.06327,0.23091 -0.03484,0 -0.105106,-0.1039 -0.156128,-0.23091 -0.05102,-0.127 -0.02258,-0.2309 0.06327,-0.2309 z m 10.591552,0 c 0.224114,0 0.311996,0.25247 0.446981,1.28442 0.07553,0.57748 0.05654,0.87072 -0.05634,0.87072 -0.265844,0 -0.34466,-0.2116 -0.45485,-1.21858 -0.06634,-0.60629 -0.0438,-0.93656 0.06421,-0.93656 z m -8.078073,0.21286 c 0.02335,0.003 0.04718,0.0103 0.07114,0.0244 0.08252,0.0487 0.150148,0.18858 0.150148,0.31059 0,0.25401 -0.254712,0.29699 -0.402912,0.068 -0.115002,-0.17773 0.01818,-0.42071 0.181625,-0.40289 z m 48.126593,0.0451 0.22601,0.51353 c 0.29659,0.67374 0.22406,0.81514 -0.24427,0.47625 -0.3362,-0.24327 -0.35773,-0.31858 -0.18162,-0.63289 z m -9.03625,0.004 c 0.0399,-0.002 0.12931,0.13134 0.23105,0.35359 0.18247,0.39865 0.20181,0.60829 0.0743,0.80607 -0.0948,0.14701 -0.1725,0.37215 -0.1725,0.5003 0,0.1459 -0.1506,0.23301 -0.40291,0.23301 -0.49442,0 -0.51488,-0.2633 -0.0806,-1.03729 0.17727,-0.31593 0.32498,-0.67961 0.32862,-0.80787 5.2e-4,-0.032 0.009,-0.0473 0.022,-0.0478 z m 14.60934,0.20746 c 0.1406,0.005 0.1895,0.0989 0.1895,0.30006 0,0.16933 -0.0544,0.29967 -0.12088,0.28984 -0.69447,-0.1026 -0.89249,-0.33499 -0.42999,-0.50451 0.15974,-0.0585 0.27701,-0.0881 0.36137,-0.0854 z m -7.34338,0.15935 c 0.0363,5.2e-4 0.10332,0.0593 0.22632,0.17679 0.22154,0.21162 0.23204,0.29776 0.0607,0.49489 -0.2701,0.31107 -0.55239,0.308 -0.42684,-0.005 0.0538,-0.13392 0.0979,-0.35667 0.0979,-0.49489 0,-0.11535 0.006,-0.17291 0.0418,-0.17228 z m -13.03358,0.0457 c 0.0578,0.003 0.0985,0.0637 0.0985,0.16266 0,0.132 -0.0725,0.24024 -0.16116,0.24024 -0.0887,0 -0.16116,-0.0652 -0.16116,-0.14492 0,-0.0797 0.0725,-0.18763 0.16116,-0.23994 0.0221,-0.0131 0.0433,-0.0188 0.0626,-0.018 z m -19.287531,0.16688 c 0.02107,-0.002 0.04252,0.003 0.06327,0.015 0.07935,0.0469 0.144167,0.18497 0.144167,0.30697 0,0.22669 -0.191892,0.29507 -0.364824,0.12989 -0.127121,-0.12142 0.0099,-0.43982 0.157387,-0.4519 z m 15.370151,0.10884 c 0.0688,0.009 0.15721,0.0729 0.29936,0.19573 0.18269,0.15791 0.33208,0.34547 0.33208,0.41701 0,0.0715 -0.0544,0.12067 -0.12087,0.10914 -0.93476,-0.16211 -0.96025,-0.18391 -0.6922,-0.5887 0.0637,-0.0962 0.11283,-0.1421 0.18163,-0.13318 z m -13.052148,0.14672 c 0.0876,0.0101 0.145741,0.18426 0.145741,0.51924 0,0.43617 -0.06139,0.53879 -0.32233,0.53879 -0.377771,0 -0.371359,0.0261 -0.145425,-0.59291 0.117312,-0.32143 0.234411,-0.47524 0.322014,-0.46512 z m 7.503928,0.13529 c 0.10523,-0.007 0.26721,0.10972 0.38245,0.3154 0.0976,0.17403 0.14136,0.39916 0.0973,0.5003 -0.0452,0.10357 -0.12836,0.0328 -0.19044,-0.16236 -0.0606,-0.1905 -0.17446,-0.34636 -0.25276,-0.34636 -0.0783,0 -0.14228,-0.0693 -0.14228,-0.15393 0,-0.10041 0.0426,-0.14896 0.10577,-0.15305 z m -13.031692,0.0896 c 0.07677,0.007 0.199516,0.0557 0.395357,0.13409 0.288082,0.11538 0.547378,0.31977 0.576038,0.45431 0.03988,0.18718 -0.08313,0.24474 -0.523785,0.24474 -0.530343,0 -0.576039,-0.0358 -0.576039,-0.45431 0,-0.28314 4.75e-4,-0.38986 0.128429,-0.37883 z m 40.334022,0.0791 c 0.12996,5.1e-4 0.16486,0.16186 0.0743,0.43445 -0.0584,0.17572 -0.17355,0.31961 -0.25623,0.31961 -0.20754,0 -0.18997,-0.57426 0.0214,-0.69905 0.0633,-0.0373 0.11721,-0.0552 0.16054,-0.055 z m -9.19615,0.0746 c 0.0142,-1.5e-4 0.0252,0.002 0.0327,0.006 0.0704,0.0415 0.1281,0.21 0.1281,0.37433 0,0.24597 -0.11395,0.29885 -0.64464,0.29885 -0.35457,0 -0.64467,-0.0279 -0.64467,-0.0619 0,-0.12573 0.91513,-0.61528 1.12847,-0.61756 z m 2.31202,0.0983 c 0.024,0.009 0.0577,0.0493 0.10513,0.11937 0.0859,0.127 0.15743,0.28286 0.15865,0.34637 10e-4,0.0635 -0.07,0.11545 -0.15865,0.11545 -0.0886,0 -0.15987,-0.15586 -0.15865,-0.34636 0.001,-0.17506 0.0136,-0.24932 0.0535,-0.23483 z m -43.265524,0.11937 c 0.07916,0 0.185689,0.10391 0.236711,0.23091 0.05651,0.14066 3.24e-4,0.23091 -0.143853,0.23091 -0.13018,0 -0.236711,-0.10391 -0.236711,-0.23091 0,-0.127 0.0647,-0.23091 0.143853,-0.23091 z m 46.457644,0.0394 c 0.0992,0.0136 0.21083,0.0969 0.26064,0.23963 0.0351,0.10054 -0.051,0.1828 -0.19138,0.1828 -0.14035,0 -0.25528,-0.10978 -0.25528,-0.24383 0,-0.13593 0.0868,-0.19213 0.18602,-0.1786 z m -11.62873,0.11456 c 0.0886,-1e-5 0.16117,0.0693 0.16117,0.15393 0,0.0847 -0.0725,0.15394 -0.16117,0.15394 -0.0886,0 -0.16116,-0.0693 -0.16116,-0.15394 0,-0.0847 0.0725,-0.15393 0.16116,-0.15393 z"
       id="path6677"
       inkscape:connector-curvature="0" />
  </g>
</svg>
