<?xml version="1.0" encoding="UTF-8" standalone="no"?>
<!-- Created with Inkscape (http://www.inkscape.org/) -->

<svg
   xmlns:dc="http://purl.org/dc/elements/1.1/"
   xmlns:cc="http://creativecommons.org/ns#"
   xmlns:rdf="http://www.w3.org/1999/02/22-rdf-syntax-ns#"
   xmlns:svg="http://www.w3.org/2000/svg"
   xmlns="http://www.w3.org/2000/svg"
   xmlns:sodipodi="http://sodipodi.sourceforge.net/DTD/sodipodi-0.dtd"
   xmlns:inkscape="http://www.inkscape.org/namespaces/inkscape"
   width="210mm"
   height="297mm"
   viewBox="0 0 210 297"
   version="1.1"
   id="svg6053"
   inkscape:version="0.92.4 (5da689c313, 2019-01-14)"
   sodipodi:docname="Interactive.svg">
  <defs
     id="defs6047" />
  <sodipodi:namedview
     id="base"
     pagecolor="#ffffff"
     bordercolor="#666666"
     borderopacity="1.0"
     inkscape:pageopacity="0.0"
     inkscape:pageshadow="2"
     inkscape:zoom="0.7"
     inkscape:cx="181.28499"
     inkscape:cy="414.71956"
     inkscape:document-units="mm"
     inkscape:current-layer="layer1"
     showgrid="false"
     inkscape:window-width="1366"
     inkscape:window-height="715"
     inkscape:window-x="-8"
     inkscape:window-y="-8"
     inkscape:window-maximized="1" />
  <metadata
     id="metadata6050">
    <rdf:RDF>
      <cc:Work
         rdf:about="">
        <dc:format>image/svg+xml</dc:format>
        <dc:type
           rdf:resource="http://purl.org/dc/dcmitype/StillImage" />
        <dc:title></dc:title>
      </cc:Work>
    </rdf:RDF>
  </metadata>
  <g
     inkscape:label="Layer 1"
     inkscape:groupmode="layer"
     id="layer1">
    <path
       style="fill:#cbb0f2;stroke-width:0.99999994;fill-opacity:1"
       d="M 211.38672 555.07812 L 211.38672 780.07812 L 211.38672 1005.0781 L 436.38672 1005.0781 L 661.38672 1005.0781 L 661.38672 780.07812 L 661.38672 555.07812 L 436.38672 555.07812 L 211.38672 555.07812 z M 274.76172 660.88086 L 590.93945 660.88086 L 590.93945 935.64062 L 274.76172 935.64062 L 274.76172 660.88086 z "
       transform="scale(0.26458333)"
       id="path6627"
       inkscape:export-xdpi="98.559731"
       inkscape:export-ydpi="98.559731" />
    <path
       inkscape:connector-curvature="0"
       id="path6625"
       d="m 109.38841,265.62312 c -10.891566,-1.13733 -22.565559,-5.99506 -31.178165,-12.97373 -2.61268,-2.11702 -6.62197,-6.12631 -8.738988,-8.73899 -5.512428,-6.80307 -9.892744,-15.8396 -11.799918,-24.34308 -3.017575,-13.4544 -1.385968,-27.08233 4.728872,-39.49773 5.892718,-11.96441 14.895358,-20.9929 26.883146,-26.96035 16.705813,-8.31605 36.177493,-8.31605 52.883313,0 16.5668,8.24686 27.99153,23.09023 31.9515,41.51243 0.72098,3.35408 0.73936,3.64676 0.73936,11.77396 0,8.1272 -0.0184,8.41988 -0.73936,11.77396 -3.95997,18.4222 -15.3847,33.26557 -31.9515,41.51242 -10.03919,4.99745 -21.6543,7.10271 -32.77826,5.94111 z m 37.16056,-62.53478 V 183.50917 H 115.46043 84.371892 l -0.06844,19.31458 c -0.03764,10.62303 -0.01143,19.46391 0.05826,19.64641 0.10079,0.26397 6.472388,0.31807 31.156978,0.26458 l 31.03028,-0.0672 z m -56.36654,15.14879 c -0.06988,-0.18267 -0.09615,-7.23775 -0.05838,-15.67796 l 0.06867,-15.34583 h 0.661458 c 0.642009,0 0.663731,0.0603 0.738733,2.05052 l 0.07728,2.05052 h 21.966679 c 14.63621,0 22.13746,0.0914 22.47845,0.27389 0.43464,0.23261 0.51178,0.56669 0.51178,2.21656 0,1.3049 -0.11688,2.03967 -0.356,2.23813 -0.25439,0.21112 -6.65455,0.31476 -22.42344,0.36312 l -22.067436,0.0677 v 1.85209 1.85208 l 18.917706,0.13229 c 10.40474,0.0728 19.06654,0.22862 19.24844,0.34635 0.46727,0.30242 0.4465,3.72611 -0.025,4.1174 -0.25269,0.20971 -5.82725,0.31487 -19.24844,0.36312 l -18.892726,0.0679 v 1.7198 1.71979 l 14.263186,0.0685 c 10.25108,0.0492 14.36608,0.15387 14.62898,0.37206 0.2633,0.21852 0.34425,0.82953 0.2889,2.18049 l -0.0769,1.8769 -14.55209,0.1323 -14.552076,0.13229 v 1.71979 1.71979 l 23.415626,0.13229 23.41562,0.13229 v 0.66146 0.66146 l -24.151,0.0675 c -19.180769,0.0536 -24.17714,-7.9e-4 -24.278041,-0.26458 z"
       style="fill:#cbb0f2;stroke-width:0.26458332" />
    <path
       inkscape:connector-curvature="0"
       id="path6623"
       d="m 98.861294,243.6228 c -0.47103,-0.32031 -0.857979,-0.80345 -0.859889,-1.07365 -0.002,-0.27019 2.080495,-3.42535 4.627565,-7.01145 l 4.63104,-6.5202 -11.973224,-0.13229 c -11.886301,-0.13133 -11.982347,-0.13678 -13.22929,-0.75086 -1.506738,-0.74202 -2.911016,-2.3056 -3.331665,-3.7096 -0.436138,-1.4557 -0.436138,-41.21713 0,-42.67282 0.420649,-1.40401 1.824927,-2.96758 3.331665,-3.7096 l 1.256062,-0.61858 h 32.146872 c 32.04176,0 32.15078,0.002 33.34047,0.55249 1.43793,0.66559 2.6524,1.83183 3.33147,3.19919 0.47738,0.96121 0.50608,1.99777 0.58481,21.11916 0.0574,13.95493 -0.006,20.52183 -0.20895,21.45956 -0.41151,1.90602 -1.57408,3.36506 -3.39297,4.25826 l -1.50796,0.74051 -12.23698,0.0807 c -6.73033,0.0444 -12.23697,0.13013 -12.23697,0.19056 0,0.0604 2.08359,3.02225 4.6302,6.58181 2.54662,3.55955 4.63021,6.65266 4.63021,6.87357 0,0.22091 -0.4275,0.72773 -0.95,1.12626 -0.7318,0.55817 -1.05085,0.66205 -1.38906,0.45226 -0.24149,-0.14979 -2.82031,-3.61914 -5.73073,-7.70968 l -5.29167,-7.43733 -3.83916,-0.0129 -3.83916,-0.0129 -5.42941,7.60472 c -2.98617,4.1826 -5.60433,7.62959 -5.81813,7.65998 -0.213785,0.0304 -0.774105,-0.2068 -1.245145,-0.52711 z m 47.405866,-20.81645 0.67869,-0.25804 v -19.45997 -19.45997 l -0.67869,-0.25804 c -0.74974,-0.28505 -59.791813,-0.37445 -61.200736,-0.0927 l -0.826823,0.16537 v 19.65898 c 0,18.50036 0.02729,19.66612 0.46302,19.77998 0.971482,0.25388 60.891489,0.18025 61.564539,-0.0756 z m -55.889226,-4.55739 c -0.239414,-0.23941 -0.3175,-3.9757 -0.3175,-15.1919 0,-8.18092 0.07227,-15.06273 0.160599,-15.29291 0.08833,-0.23019 0.383718,-0.41852 0.656418,-0.41852 0.567473,0 0.734441,0.52958 0.834187,2.64583 l 0.06859,1.45521 22.092702,0.066 c 20.3972,0.061 22.11809,0.10038 22.42344,0.51359 0.45043,0.60955 0.43182,3.37273 -0.0253,3.75208 -0.25439,0.21112 -6.65455,0.31477 -22.42344,0.36313 l -22.067432,0.0677 v 2.11667 2.11666 l 19.049992,0.1323 19.05,0.13229 v 1.98437 1.98438 l -19.05,0.13229 -19.049992,0.13229 v 2.11667 2.11666 l 14.287492,0.13805 c 7.85813,0.0759 14.32321,0.16522 14.36685,0.19844 0.0436,0.0332 0.0436,0.745 0,1.58174 l -0.0794,1.52136 -14.2875,0.13229 -14.287492,0.13229 -0.07728,2.05052 -0.07728,2.05052 h 23.008232 c 12.65453,0 23.19657,0.0723 23.42675,0.1606 0.54134,0.20774 0.54134,1.05857 0,1.2663 -0.23018,0.0883 -10.98152,0.1606 -23.89187,0.1606 -17.904273,0 -23.54868,-0.0753 -23.790853,-0.3175 z"
       style="fill:#b59cd9;stroke-width:0.26458332" />
    <path
       inkscape:connector-curvature="0"
       id="path6621"
       d="m 98.811264,243.06127 c -0.74644,-0.79455 -1.27684,0.13523 4.633916,-8.12318 2.39491,-3.34614 4.28512,-6.19598 4.20046,-6.33297 -0.0925,-0.14969 -4.97757,-0.25139 -12.24301,-0.25488 -11.123671,-0.005 -12.173587,-0.0443 -13.147405,-0.48782 -1.360964,-0.61983 -2.929582,-2.36334 -3.288209,-3.65483 -0.41144,-1.48169 -0.389629,-40.81252 0.0234,-42.19108 0.410279,-1.36939 1.928867,-3.09675 3.250045,-3.69684 1.023386,-0.46484 2.563182,-0.48769 33.238669,-0.49323 l 32.16558,-0.006 1.43487,0.7276 c 0.93982,0.47658 1.70928,1.12342 2.23025,1.87488 l 0.79539,1.14727 v 21.51796 21.51796 l -0.79539,1.14727 c -0.52097,0.75145 -1.29043,1.3983 -2.23025,1.87487 l -1.43487,0.72761 h -12.52027 c -9.13902,0 -12.52026,0.0808 -12.52026,0.29931 0,0.16463 2.15842,3.32559 4.79648,7.02438 l 4.79649,6.72506 -0.61961,0.65954 c -0.35427,0.3771 -0.85037,0.62651 -1.15846,0.5824 -0.36351,-0.0521 -2.10889,-2.2727 -5.36351,-6.82403 -2.65356,-3.71078 -5.12918,-7.13382 -5.50139,-7.60677 l -0.67673,-0.85989 h -3.69464 c -3.50218,0 -3.72151,0.031 -4.21067,0.59531 -0.28382,0.32742 -2.75925,3.75047 -5.50096,7.60677 -3.2946,4.63397 -5.16337,7.03762 -5.511166,7.08861 -0.2959,0.0434 -0.79873,-0.21289 -1.14875,-0.58547 z M 146.95239,222.3857 c 0.15879,-0.41763 0.25804,-7.84025 0.25804,-19.29736 0,-11.45711 -0.0992,-18.87973 -0.25804,-19.29736 l -0.25803,-0.67868 h -31.04217 c -23.791134,0 -31.116336,0.0742 -31.359673,0.3175 -0.241123,0.24112 -0.3175,4.94584 -0.3175,19.55752 0,10.58202 0.07227,19.42836 0.1606,19.65854 0.145187,0.37836 3.154272,0.41852 31.359673,0.41852 h 31.19907 z m -56.505389,-4.41314 c -0.06989,-0.18268 -0.09616,-7.1187 -0.05838,-15.41339 0.06012,-13.19863 0.118234,-15.08125 0.465565,-15.08125 0.311992,0 0.413404,0.43857 0.474149,2.05052 0.0425,1.12779 0.102034,2.0786 0.132292,2.11291 0.03026,0.0343 10.115793,0.12361 22.412303,0.19844 l 22.35729,0.13605 0.0773,1.74429 c 0.055,1.2419 -0.0285,1.83206 -0.28986,2.049 -0.26904,0.22328 -6.26323,0.32278 -22.43457,0.37237 l -22.067436,0.0677 v 2.24896 2.24896 l 19.049996,0.13229 19.05,0.13229 v 1.71979 1.71979 l -18.76046,0.0679 c -12.074626,0.0437 -18.874599,0.16266 -19.080747,0.33375 -0.235198,0.1952 -0.312121,1.86419 -0.289539,6.28207 l 0.03075,6.01624 23.415616,0.1323 c 20.57871,0.11626 23.41563,0.18037 23.41563,0.52916 0,0.34935 -2.86046,0.40497 -23.88641,0.46443 -18.969074,0.0537 -23.912565,-7.9e-4 -24.013477,-0.26458 z"
       style="fill:#7a6d95;stroke-width:0.26458332" />
    <path
       inkscape:connector-curvature="0"
       id="path6619"
       d="m 99.042454,242.95015 -0.60159,-0.48714 4.719546,-6.59046 c 2.59575,-3.62476 4.77216,-6.85835 4.83646,-7.18577 l 0.11691,-0.59532 H 95.827263 83.540737 l -1.436231,-0.7276 c -1.547499,-0.78397 -2.45765,-1.89272 -2.898915,-3.53145 -0.17614,-0.65413 -0.24511,-8.09439 -0.197875,-21.34607 l 0.07251,-20.34195 0.795037,-1.30198 c 0.597021,-0.97771 1.152502,-1.48321 2.230256,-2.02959 l 1.435219,-0.72761 31.768692,0.002 c 21.35194,0.001 32.09641,0.0925 32.76813,0.27902 1.30061,0.36118 2.79595,1.69063 3.40193,3.02453 0.45265,0.99639 0.48217,2.3065 0.48763,21.64045 0.006,22.49575 0.0646,21.60813 -1.52958,23.3082 -0.39246,0.41853 -1.18982,0.98146 -1.7719,1.25096 -0.98278,0.45501 -1.95915,0.49041 -13.67657,0.4958 -8.33373,0.004 -12.67521,0.098 -12.78602,0.27728 -0.0923,0.1493 1.9843,3.28883 4.6146,6.97672 2.6303,3.68779 4.78236,6.87926 4.78236,7.09205 0,0.43302 -1.22627,1.19033 -1.49396,0.92263 -0.0945,-0.0945 -2.56788,-3.53759 -5.49636,-7.65127 l -5.32451,-7.47942 h -4.09519 -4.09519 l -5.42395,7.59929 c -2.98318,4.1796 -5.5596,7.60265 -5.725376,7.60677 -0.16578,0.004 -0.57214,-0.21173 -0.90302,-0.47966 z m 47.850476,-19.93869 c 0.45953,-0.45953 0.45953,-39.38672 0,-39.84625 -0.24335,-0.24335 -7.59441,-0.3175 -31.47611,-0.3175 -30.534807,0 -31.164086,0.0102 -31.432496,0.51178 -0.181588,0.3393 -0.273891,6.988 -0.273891,19.72885 0,12.74084 0.0923,19.38955 0.273891,19.72885 0.26841,0.50153 0.897689,0.51177 31.432496,0.51177 23.8817,0 31.23276,-0.0742 31.47611,-0.3175 z M 90.589601,202.95605 c 0,-9.41713 0.09502,-15.08125 0.252992,-15.08125 0.139147,0 0.287975,0.8632 0.330729,1.91823 l 0.07774,1.91823 22.357288,0.13604 c 12.29651,0.0748 22.39249,0.16413 22.43552,0.19844 0.043,0.0343 0.043,0.86606 0,1.84833 l -0.0782,1.78594 -22.35729,0.13229 -22.357289,0.13229 0.06726,2.51354 c 0.08918,3.33293 0.07905,4.82606 -0.08232,12.13213 -0.09881,4.47365 -0.05185,6.28097 0.170127,6.54844 0.258133,0.31103 3.961399,0.36943 23.425241,0.36943 15.23604,0 23.11864,0.0902 23.11864,0.26458 0,0.17442 -8.06979,0.26459 -23.68021,0.26459 H 90.589601 Z"
       style="fill:#564e67;stroke-width:0.26458332" />
    <path
       inkscape:connector-curvature="0"
       id="path6617"
       d="m 99.373764,242.85521 c -0.17462,-0.17462 -0.3175,-0.42838 -0.3175,-0.5639 0,-0.13551 2.155306,-3.26831 4.789566,-6.96176 2.96362,-4.15523 4.73198,-6.86544 4.63852,-7.10902 -0.13071,-0.3406 -1.81911,-0.39443 -12.528635,-0.39946 -11.400092,-0.005 -12.461333,-0.0439 -13.438177,-0.48763 -1.333894,-0.60598 -2.663346,-2.10132 -3.024529,-3.40193 -0.385419,-1.38789 -0.382457,-40.3091 0.0032,-41.69784 0.154393,-0.556 0.69708,-1.47178 1.205969,-2.03506 1.801834,-1.99441 -0.618688,-1.87179 35.330871,-1.78987 l 32.1903,0.0733 1.1472,0.79729 c 0.67065,0.4661 1.39448,1.2862 1.74251,1.97429 l 0.59531,1.177 v 20.65767 20.65766 l -0.59531,1.17701 c -0.34789,0.68783 -1.07198,1.50836 -1.74226,1.97429 l -1.14694,0.79729 -13.13705,0.13229 c -11.5923,0.11674 -13.14634,0.18056 -13.21599,0.54277 -0.0434,0.22577 2.0823,3.43484 4.7238,7.13127 3.73167,5.22198 4.74514,6.81208 4.54451,7.13014 -0.14202,0.22515 -0.41842,0.40936 -0.61422,0.40936 -0.1958,0 -2.62574,-3.17479 -5.39988,-7.05508 -2.77413,-3.8803 -5.26855,-7.30335 -5.54315,-7.60677 -0.46279,-0.51138 -0.78253,-0.55169 -4.37644,-0.55169 -2.70489,0 -4.00216,0.1 -4.29055,0.33073 -0.22736,0.1819 -2.75911,3.63471 -5.62612,7.67292 -2.86701,4.0382 -5.299305,7.34218 -5.405105,7.34218 -0.1058,0 -0.33524,-0.14287 -0.50987,-0.3175 z m 47.589476,-19.53555 c 0.49903,-0.26708 0.51177,-0.77079 0.51177,-20.23132 0,-19.46053 -0.0127,-19.96425 -0.51177,-20.23132 -0.34445,-0.18434 -10.67691,-0.27389 -31.6027,-0.27389 H 84.269606 l -0.411879,0.58804 c -0.363657,0.51919 -0.411877,2.85101 -0.411877,19.91717 0,17.06615 0.04822,19.39798 0.411877,19.91717 l 0.411879,0.58804 h 31.090934 c 20.92579,0 31.25825,-0.0896 31.6027,-0.27389 z m -56.109056,-5.82715 c 0,-0.1541 0.119062,-0.20661 0.264583,-0.11667 0.145521,0.0899 0.264584,0.21603 0.264584,0.2802 0,0.0642 -0.119063,0.11667 -0.264584,0.11667 -0.145521,0 -0.264583,-0.12609 -0.264583,-0.2802 z m 0.09245,-14.80105 c 0,-1.23692 0.04558,-1.74294 0.101282,-1.12448 0.0557,0.61847 0.0557,1.6305 0,2.24896 -0.05571,0.61847 -0.101282,0.11245 -0.101282,-1.12448 z m -0.0884,-8.87677 c 0.0021,-1.30241 0.09813,-2.21988 0.213111,-2.03881 0.163454,0.25739 5.054246,0.34397 22.419385,0.39687 l 22.21032,0.0677 0.0788,1.65365 0.0788,1.65364 h -22.1847 c -16.901994,0 -22.260312,0.0756 -22.502207,0.3175 -0.246944,0.24695 -0.3166,-0.20872 -0.313449,-2.05052 z"
       style="fill:#000000;stroke-width:0.26458332" />
  </g>
</svg>
