<?xml version="1.0" encoding="UTF-8" standalone="no"?>
<!-- Created with Inkscape (http://www.inkscape.org/) -->

<svg
   xmlns:dc="http://purl.org/dc/elements/1.1/"
   xmlns:cc="http://creativecommons.org/ns#"
   xmlns:rdf="http://www.w3.org/1999/02/22-rdf-syntax-ns#"
   xmlns:svg="http://www.w3.org/2000/svg"
   xmlns="http://www.w3.org/2000/svg"
   xmlns:xlink="http://www.w3.org/1999/xlink"
   xmlns:sodipodi="http://sodipodi.sourceforge.net/DTD/sodipodi-0.dtd"
   xmlns:inkscape="http://www.inkscape.org/namespaces/inkscape"
   width="210mm"
   height="297mm"
   viewBox="0 0 210 297"
   version="1.1"
   id="svg8"
   inkscape:version="0.92.4 (5da689c313, 2019-01-14)"
   sodipodi:docname="logo.svg">
  <defs
     id="defs2">
    <linearGradient
       inkscape:collect="always"
       id="linearGradient5979">
      <stop
         style="stop-color:#000000;stop-opacity:1;"
         offset="0"
         id="stop5975" />
      <stop
         style="stop-color:#000000;stop-opacity:0;"
         offset="1"
         id="stop5977" />
    </linearGradient>
    <radialGradient
       inkscape:collect="always"
       xlink:href="#linearGradient5979"
       id="radialGradient5981"
       cx="102.36622"
       cy="146.95599"
       fx="102.36622"
       fy="146.95599"
       r="20.445779"
       gradientTransform="matrix(1,0,0,0.19208897,0,118.72737)"
       gradientUnits="userSpaceOnUse" />
  </defs>
  <sodipodi:namedview
     id="base"
     pagecolor="#ffffff"
     bordercolor="#666666"
     borderopacity="1.0"
     inkscape:pageopacity="0.0"
     inkscape:pageshadow="2"
     inkscape:zoom="1.4"
     inkscape:cx="440.00172"
     inkscape:cy="476.95951"
     inkscape:document-units="mm"
     inkscape:current-layer="layer1"
     showgrid="false"
     inkscape:window-width="1366"
     inkscape:window-height="715"
     inkscape:window-x="-8"
     inkscape:window-y="-8"
     inkscape:window-maximized="1" />
  <metadata
     id="metadata5">
    <rdf:RDF>
      <cc:Work
         rdf:about="">
        <dc:format>image/svg+xml</dc:format>
        <dc:type
           rdf:resource="http://purl.org/dc/dcmitype/StillImage" />
        <dc:title></dc:title>
      </cc:Work>
    </rdf:RDF>
  </metadata>
  <g
     inkscape:label="Layer 1"
     inkscape:groupmode="layer"
     id="layer1">
    <rect
       id="rect3713"
       width="83.154762"
       height="47.624996"
       x="77.107147"
       y="125.3988"
       style="fill:#a02c2c;fill-opacity:1;stroke-width:0.20096545"
       inkscape:export-xdpi="96"
       inkscape:export-ydpi="96" />
    <g
       id="g6015"
       transform="translate(-0.03740283,-2.8346262)"
       inkscape:export-xdpi="96"
       inkscape:export-ydpi="96">
      <g
         id="text4522"
         style="font-style:normal;font-variant:normal;font-weight:bold;font-stretch:normal;font-size:17.13924408px;line-height:1.25;font-family:'Segoe Script';-inkscape-font-specification:'Segoe Script, Bold';font-variant-ligatures:normal;font-variant-caps:normal;font-variant-numeric:normal;font-feature-settings:normal;text-align:start;letter-spacing:0px;word-spacing:0px;writing-mode:lr-tb;text-anchor:start;fill:#ffffff;fill-opacity:1;stroke:#ffffff;stroke-width:0.26780069;stroke-opacity:1"
         transform="scale(0.9696178,1.0313342)"
         aria-label="Learn It">
        <path
           id="path5989"
           style="font-style:normal;font-variant:normal;font-weight:bold;font-stretch:normal;font-size:17.13924408px;font-family:'Segoe Script';-inkscape-font-specification:'Segoe Script, Bold';font-variant-ligatures:normal;font-variant-caps:normal;font-variant-numeric:normal;font-feature-settings:normal;text-align:start;writing-mode:lr-tb;text-anchor:start;fill:#ffffff;fill-opacity:1;stroke:#ffffff;stroke-width:0.26780069;stroke-opacity:1"
           d="m 94.616052,145.68409 q -0.09206,0.12553 -0.225957,0.21759 -0.133901,0.0921 -0.284539,0.15901 -0.150637,0.0586 -0.309644,0.0921 -0.150638,0.0251 -0.27617,0.0251 h -1.263684 q -0.384964,0 -0.853615,0.0669 -0.460282,0.0669 -0.937302,0.16738 -0.47702,0.10042 -0.95404,0.22595 -0.468651,0.12553 -0.878721,0.23433 -0.677871,0.19248 -1.272053,0.33475 -0.585814,0.14227 -1.012622,0.14227 -0.368226,0 -0.627658,-0.10043 -0.259432,-0.0921 -0.426807,-0.25943 -0.159007,-0.15901 -0.234326,-0.36823 -0.07532,-0.20921 -0.07532,-0.43517 0,-0.41844 0.100426,-1.02099 0.100425,-0.61092 0.234325,-1.26369 0.03347,-0.17574 0.117163,-0.67787 0.09206,-0.51049 0.200851,-1.17999 0.117162,-0.66951 0.234325,-1.43106 0.125532,-0.76156 0.234326,-1.4478 0.108794,-0.68624 0.184113,-1.22184 0.07532,-0.54397 0.100425,-0.76993 0.04184,-0.41007 0.05858,-0.77829 0.02511,-0.36823 0.05858,-0.66951 0.04184,-0.30964 0.108794,-0.55233 0.06695,-0.2427 0.20085,-0.41007 0.14227,-0.17575 0.368226,-0.25944 0.225957,-0.0921 0.577446,-0.0921 0.318013,0 0.518863,0.10879 0.200851,0.1088 0.318014,0.28454 0.117163,0.17574 0.159006,0.4017 0.05021,0.21759 0.05021,0.44355 0,0.0837 -0.05021,0.39333 -0.05021,0.30127 -0.1339,0.75319 -0.08369,0.44354 -0.192482,0.99588 -0.100425,0.54397 -0.209219,1.11305 -0.108794,0.56907 -0.209219,1.11304 -0.09206,0.54397 -0.167376,0.97915 -0.06695,0.4017 -0.175744,0.87035 -0.100425,0.46865 -0.184113,0.94567 -0.05858,0.35149 -0.125531,0.71135 -0.05858,0.35149 -0.108794,0.6695 -0.05021,0.31801 -0.08369,0.58581 -0.02511,0.25944 -0.02511,0.42681 0,0.0921 0.01674,0.17575 0.01674,0.0753 0.06695,0.0753 0.175744,0 0.460283,-0.0502 0.284538,-0.0586 0.619289,-0.14227 0.334751,-0.0837 0.686239,-0.18411 0.359857,-0.10042 0.661133,-0.19248 0.07532,-0.0167 0.284538,-0.0586 0.20922,-0.0502 0.485389,-0.1088 0.284538,-0.0586 0.594183,-0.11716 0.318013,-0.0586 0.594183,-0.10879 0.284538,-0.0502 0.502126,-0.0753 0.217588,-0.0335 0.301276,-0.0335 0.117162,0 0.426807,-0.0418 0.309644,-0.0419 0.728083,-0.0419 0.669502,0 0.970778,0.16738 0.301275,0.15901 0.301275,0.56908 0,0.16737 -0.05858,0.34312 -0.05021,0.16737 -0.167375,0.30127 z"
           inkscape:connector-curvature="0" />
        <path
           id="path5991"
           style="font-style:normal;font-variant:normal;font-weight:bold;font-stretch:normal;font-size:17.13924408px;font-family:'Segoe Script';-inkscape-font-specification:'Segoe Script, Bold';font-variant-ligatures:normal;font-variant-caps:normal;font-variant-numeric:normal;font-feature-settings:normal;text-align:start;writing-mode:lr-tb;text-anchor:start;fill:#ffffff;fill-opacity:1;stroke:#ffffff;stroke-width:0.26780069;stroke-opacity:1"
           d="m 100.33192,139.34056 q 0,-0.18411 -0.0418,-0.35148 -0.0335,-0.16738 -0.11716,-0.20922 -0.284542,0 -0.610924,0.24269 -0.318014,0.24269 -0.610921,0.69461 -0.292907,0.44354 -0.527232,1.07957 -0.225957,0.62766 -0.334751,1.39758 0.393332,-0.2929 0.786665,-0.61092 0.401701,-0.32638 0.719714,-0.67787 0.326382,-0.35148 0.527229,-0.73645 0.20922,-0.39333 0.20922,-0.82851 z m 6.52764,1.53986 q 0,0.15064 -0.22595,0.55234 -0.43518,0.62765 -0.97078,1.24694 -0.52723,0.61092 -1.12978,1.16326 -0.60256,0.55234 -1.25532,1.02936 -0.65276,0.46865 -1.32227,0.81177 -0.6695,0.34312 -1.339,0.54397 -0.661132,0.19248 -1.297159,0.19248 -1.431059,0 -2.234462,-0.8034 -0.795033,-0.81177 -0.795033,-2.44368 0,-0.65276 0.09206,-1.28042 0.09206,-0.63603 0.301275,-1.24695 0.217588,-0.61929 0.560708,-1.21347 0.34312,-0.59418 0.845246,-1.15489 0.184113,-0.20922 0.426807,-0.4017 0.251064,-0.19248 0.527233,-0.34312 0.284538,-0.15064 0.585814,-0.2427 0.309645,-0.0921 0.610921,-0.0921 0.44354,0 0.76155,0.16737 0.32639,0.16738 0.53561,0.45192 0.20922,0.27617 0.30964,0.64439 0.10043,0.35986 0.10043,0.76156 0,0.74482 -0.55234,1.54822 -0.55234,0.79504 -1.531485,1.63191 -0.318014,0.2678 -0.736452,0.58582 -0.418439,0.30964 -0.937303,0.70297 0.01674,0.20922 0.117163,0.39334 0.108794,0.18411 0.284538,0.32638 0.184113,0.1339 0.435176,0.21759 0.251064,0.0753 0.569077,0.0753 0.410066,0 0.870346,-0.10043 0.46029,-0.10879 0.9122,-0.28454 0.45191,-0.17574 0.87872,-0.4017 0.42681,-0.23432 0.7783,-0.48539 0.61929,-0.44354 1.18836,-0.95404 0.57745,-0.51886 1.11305,-1.05446 l 0.44354,-0.44355 q 0.46029,-0.41007 0.78667,-0.41007 0.16737,0 0.22595,0.11717 0.067,0.10879 0.067,0.19248 z"
           inkscape:connector-curvature="0" />
        <path
           id="path5993"
           style="font-style:normal;font-variant:normal;font-weight:bold;font-stretch:normal;font-size:17.13924408px;font-family:'Segoe Script';-inkscape-font-specification:'Segoe Script, Bold';font-variant-ligatures:normal;font-variant-caps:normal;font-variant-numeric:normal;font-feature-settings:normal;text-align:start;writing-mode:lr-tb;text-anchor:start;fill:#ffffff;fill-opacity:1;stroke:#ffffff;stroke-width:0.26780069;stroke-opacity:1"
           d="m 110.43303,139.00581 q 0,-0.0251 -0.0167,-0.0921 -0.008,-0.0753 -0.0251,-0.11717 -0.27617,0.0335 -0.61092,0.21759 -0.32639,0.17575 -0.71135,0.54397 -0.37659,0.36823 -0.81177,0.95404 -0.43518,0.57745 -0.9122,1.41432 -0.12553,0.22596 -0.2678,0.49376 -0.14227,0.25943 -0.2678,0.56071 -0.11716,0.30127 -0.19248,0.64439 -0.0753,0.33476 -0.0753,0.71135 0,0.14227 0.0753,0.21759 0.0837,0.067 0.16738,0.067 0.19248,0 0.49375,-0.21759 0.30965,-0.22596 0.66114,-0.59418 0.35985,-0.36823 0.72808,-0.83688 0.37659,-0.47702 0.69461,-0.97078 0.31801,-0.50212 0.55234,-0.98751 0.24269,-0.49376 0.33475,-0.88709 0.0251,-0.12553 0.0586,-0.29291 0.0335,-0.16737 0.0586,-0.32638 0.0335,-0.16738 0.0502,-0.30128 0.0167,-0.1339 0.0167,-0.20085 z m 6.7536,1.05447 q 0,0.15064 -0.0502,0.31801 -0.0502,0.16738 -0.1339,0.33475 -0.0753,0.16738 -0.17575,0.33475 -0.10042,0.16738 -0.20922,0.30965 -0.48539,0.65276 -1.04609,1.23021 -0.55234,0.56907 -1.11305,1.0712 -0.30128,0.2678 -0.61929,0.48539 -0.31801,0.21759 -0.63603,0.37659 -0.31801,0.15901 -0.61929,0.2427 -0.30127,0.0837 -0.5607,0.0837 -0.31802,0 -0.61092,-0.20086 -0.29291,-0.20085 -0.51887,-0.50212 -0.21759,-0.30965 -0.35149,-0.66113 -0.12553,-0.35149 -0.12553,-0.65277 -0.10042,0.15064 -0.2929,0.4017 -0.19249,0.25107 -0.4017,0.5105 -0.20922,0.25943 -0.39334,0.47702 -0.17574,0.20922 -0.25106,0.30127 -0.2678,0.28454 -0.61929,0.58582 -0.35149,0.30127 -0.70298,0.54397 -0.34312,0.24269 -0.64439,0.4017 -0.30128,0.15064 -0.46028,0.15064 -0.36823,0 -0.71135,-0.11717 -0.34312,-0.11716 -0.61092,-0.33475 -0.25943,-0.22595 -0.41844,-0.55234 -0.15901,-0.32638 -0.15901,-0.74482 0,-0.41007 0.1088,-0.89546 0.11716,-0.49375 0.30964,-1.02099 0.20085,-0.5356 0.47702,-1.07957 0.27617,-0.54397 0.59419,-1.05446 0.32638,-0.51887 0.68624,-0.97915 0.35985,-0.46028 0.73645,-0.82014 0.6695,-0.63603 1.42269,-0.9373 0.75319,-0.30128 1.55659,-0.30128 0.20922,0 0.35149,0.0586 0.14227,0.0586 0.24269,0.15901 0.10043,0.0921 0.16738,0.21759 0.0753,0.12553 0.1339,0.25106 0.0418,0.0586 0.1339,0.16738 0.10042,0.10042 0.20085,0.22595 0.10042,0.12554 0.17574,0.25107 0.0753,0.12553 0.0753,0.22595 0,0.17575 -0.0502,0.38497 -0.0502,0.20085 -0.10879,0.46865 -0.0502,0.2678 -0.10043,0.61092 -0.0502,0.33475 -0.0502,0.7783 0,0.25106 0.0335,0.58581 0.0418,0.33475 0.11717,0.62766 0.0753,0.2929 0.18411,0.50212 0.11716,0.20085 0.25943,0.20085 0.17574,0 0.30965,-0.0335 0.14226,-0.0418 0.2678,-0.10879 0.12553,-0.0753 0.25106,-0.17575 0.1339,-0.10042 0.30127,-0.21759 0.51887,-0.37659 1.03773,-0.87035 0.52724,-0.49376 1.07121,-1.01262 0.15063,-0.14227 0.30964,-0.31801 0.16738,-0.17575 0.33475,-0.32639 0.17574,-0.15063 0.34312,-0.25106 0.16738,-0.10042 0.31801,-0.10042 0.23433,0 0.23433,0.39333 z"
           inkscape:connector-curvature="0" />
        <path
           id="path5995"
           style="font-style:normal;font-variant:normal;font-weight:bold;font-stretch:normal;font-size:17.13924408px;font-family:'Segoe Script';-inkscape-font-specification:'Segoe Script, Bold';font-variant-ligatures:normal;font-variant-caps:normal;font-variant-numeric:normal;font-feature-settings:normal;text-align:start;writing-mode:lr-tb;text-anchor:start;fill:#ffffff;fill-opacity:1;stroke:#ffffff;stroke-width:0.26780069;stroke-opacity:1"
           d="m 123.90675,139.68368 q -0.008,0.28454 -0.10879,0.47702 -0.0921,0.19248 -0.2427,0.30965 -0.14227,0.10879 -0.32638,0.159 -0.18411,0.0419 -0.36822,0.0419 -0.15064,0 -0.30128,-0.0419 -0.15064,-0.0418 -0.30964,-0.0418 -0.26781,0 -0.66114,0.16738 -0.38496,0.159 -0.79503,0.41843 -0.41007,0.25944 -0.8034,0.57745 -0.39334,0.31801 -0.67787,0.62766 -0.15901,0.17574 -0.36823,0.4268 -0.20922,0.2427 -0.4017,0.5105 -0.18411,0.2678 -0.31801,0.5356 -0.12554,0.2678 -0.12554,0.48539 0,0.2678 0.0502,0.62766 0.0586,0.35986 0.0586,0.76156 0,0.14227 -0.008,0.2678 0,0.11716 -0.0335,0.23432 -0.0167,0.10043 -0.10879,0.22596 -0.0837,0.11716 -0.21759,0.22596 -0.1339,0.11716 -0.2929,0.19248 -0.15901,0.0753 -0.32639,0.0753 -0.27617,0 -0.46865,-0.20085 -0.19248,-0.20085 -0.30964,-0.56071 -0.1088,-0.35986 -0.15901,-0.84525 -0.0502,-0.48539 -0.0502,-1.04609 0,-0.0335 0,-0.22596 0.008,-0.19248 0.008,-0.41844 0.008,-0.22596 0.0167,-0.43518 0.008,-0.20921 0.008,-0.2678 0,-0.0335 0.008,-0.21758 0.0167,-0.18412 0.0335,-0.44355 0.0251,-0.2678 0.0418,-0.56908 0.0251,-0.30964 0.0418,-0.58581 0.0251,-0.27617 0.0418,-0.48539 0.0167,-0.21759 0.0251,-0.28454 0.008,-0.0251 0.0167,-0.16737 0.0167,-0.15064 0.0335,-0.34312 0.0251,-0.19248 0.0586,-0.39333 0.0335,-0.20085 0.0669,-0.33475 0.0335,-0.11717 0.1339,-0.27617 0.10879,-0.15901 0.2678,-0.30128 0.16738,-0.15064 0.36823,-0.25106 0.20085,-0.1088 0.4268,-0.1088 0.2678,0 0.42681,0.0837 0.16738,0.0837 0.25943,0.20922 0.10043,0.11716 0.1339,0.25943 0.0335,0.1339 0.0335,0.2427 0,0.067 -0.0502,0.30127 -0.0502,0.22596 -0.1339,0.50213 -0.10043,0.36822 -0.17575,0.86198 -0.0753,0.48539 -0.11716,0.9373 0.46028,-0.51886 0.98751,-1.04609 0.52724,-0.5356 1.09631,-0.96241 0.56908,-0.43518 1.16326,-0.70298 0.59418,-0.27617 1.18837,-0.27617 0.2929,0 0.52723,0.10043 0.23433,0.0921 0.39333,0.25106 0.16738,0.15064 0.25107,0.34312 0.0921,0.18411 0.0921,0.3766 v 0.0167 z"
           inkscape:connector-curvature="0" />
        <path
           id="path5997"
           style="font-style:normal;font-variant:normal;font-weight:bold;font-stretch:normal;font-size:17.13924408px;font-family:'Segoe Script';-inkscape-font-specification:'Segoe Script, Bold';font-variant-ligatures:normal;font-variant-caps:normal;font-variant-numeric:normal;font-feature-settings:normal;text-align:start;writing-mode:lr-tb;text-anchor:start;fill:#ffffff;fill-opacity:1;stroke:#ffffff;stroke-width:0.26780069;stroke-opacity:1"
           d="m 136.35949,143.62537 q 0.0753,0 0.11716,0.0921 0.0502,0.0837 0.0502,0.29291 0,0.32638 -0.21759,0.71134 -0.20922,0.3766 -0.62765,0.71135 -0.41007,0.33475 -1.021,0.56071 -0.61092,0.21758 -1.40595,0.21758 -0.74482,0 -1.339,-0.23432 -0.59418,-0.2427 -1.01262,-0.74482 -0.41844,-0.50213 -0.65277,-1.28042 -0.22595,-0.78667 -0.24269,-1.88298 -0.3766,0.31802 -0.76993,0.76993 -0.39333,0.44354 -0.74482,0.90383 -0.35149,0.46028 -0.63603,0.86198 -0.27617,0.4017 -0.4268,0.61929 -0.21759,0.32638 -0.35986,0.55234 -0.1339,0.21759 -0.2678,0.35986 -0.12553,0.1339 -0.28454,0.20085 -0.15901,0.0586 -0.42681,0.0586 -0.24269,0 -0.44354,-0.0753 -0.20085,-0.0753 -0.35149,-0.19248 -0.14227,-0.11717 -0.22596,-0.25943 -0.0753,-0.15064 -0.0753,-0.30128 0,-0.14227 0.0167,-0.33475 0.0167,-0.19248 0.0418,-0.39333 0.0335,-0.20085 0.0586,-0.39334 0.0335,-0.20085 0.0586,-0.35985 0.0335,-0.20922 0.067,-0.44355 0.0418,-0.23432 0.0837,-0.51886 0.0502,-0.28454 0.0921,-0.62766 0.0502,-0.35149 0.0921,-0.7783 0.0502,-0.50212 0.0921,-0.97077 0.0502,-0.47702 0.11716,-0.97915 0.0418,-0.29291 0.10879,-0.5356 0.067,-0.25106 0.19248,-0.42681 0.12554,-0.17574 0.32639,-0.27617 0.20085,-0.10042 0.51886,-0.10042 0.28454,0 0.45191,0.0669 0.16738,0.067 0.25107,0.18411 0.0837,0.10879 0.10042,0.25943 0.0251,0.14227 0.0251,0.29291 0,0.0837 -0.008,0.15064 0,0.067 -0.008,0.12553 0,0 -0.008,0.067 0,0.0669 -0.0335,0.25943 -0.0335,0.19248 -0.1088,0.54397 -0.0669,0.34312 -0.19248,0.92057 -0.0753,0.33475 -0.15901,0.68624 -0.0837,0.35148 -0.159,0.6695 -0.067,0.31801 -0.11717,0.57744 -0.0502,0.25107 -0.067,0.39333 0.20086,-0.23432 0.46866,-0.57744 0.2678,-0.35149 0.5356,-0.71135 0.2678,-0.35985 0.51886,-0.68624 0.25106,-0.32638 0.42681,-0.52723 0.28454,-0.31801 0.55234,-0.60255 0.27617,-0.28454 0.56907,-0.49376 0.29291,-0.21759 0.61929,-0.33475 0.32639,-0.12553 0.71972,-0.12553 0.22595,0 0.35985,0.0502 0.1339,0.0502 0.20086,0.14227 0.0753,0.0837 0.0921,0.20085 0.0251,0.1088 0.0251,0.23433 v 0.1339 q 0,0.0502 -0.0251,0.24269 -0.0167,0.18412 -0.0502,0.4017 -0.0251,0.21759 -0.0502,0.41007 -0.0167,0.19249 -0.0167,0.25107 0,0.64439 0.10042,1.2051 0.10043,0.56071 0.30965,0.97915 0.21759,0.41007 0.55234,0.65276 0.33475,0.23433 0.8034,0.23433 0.32638,0 0.56908,-0.0335 0.24269,-0.0418 0.46865,-0.12553 0.23432,-0.0921 0.47702,-0.23433 0.24269,-0.15063 0.5607,-0.35985 0.11717,-0.0921 0.2427,-0.16738 0.10879,-0.0669 0.23432,-0.10879 0.13391,-0.0502 0.26781,-0.0502 z"
           inkscape:connector-curvature="0" />
        <path
           id="path5999"
           style="font-style:normal;font-variant:normal;font-weight:bold;font-stretch:normal;font-size:17.13924408px;font-family:'Segoe Script';-inkscape-font-specification:'Segoe Script, Bold';font-variant-ligatures:normal;font-variant-caps:normal;font-variant-numeric:normal;font-feature-settings:normal;text-align:start;writing-mode:lr-tb;text-anchor:start;fill:#ffffff;fill-opacity:1;stroke:#ffffff;stroke-width:0.26780069;stroke-opacity:1"
           d="m 147.70754,135.99305 q 0,0.11717 -0.0502,0.41844 -0.0419,0.29291 -0.22596,0.73646 -0.14227,0.35985 -0.22596,0.61092 -0.0837,0.25106 -0.10042,0.37659 -0.15064,0.95404 -0.29291,2.05035 -0.1339,1.09631 -0.30128,2.37673 -0.0418,0.35149 -0.0921,0.73645 -0.0418,0.3766 -0.0753,0.71135 -0.0335,0.33475 -0.0586,0.59418 -0.0167,0.25106 -0.0167,0.34312 0,0.0669 0.0335,0.16738 0.0335,0.0921 0.0753,0.19248 0.0418,0.10042 0.0753,0.19248 0.0335,0.0921 0.0335,0.15901 0,0.19248 -0.11717,0.38496 -0.11716,0.19248 -0.38496,0.37659 -0.21759,0.15901 -0.43517,0.2427 -0.21759,0.0753 -0.43518,0.0921 -0.4017,0 -0.62766,-0.20086 -0.21759,-0.20085 -0.32638,-0.47702 -0.10043,-0.27616 -0.11716,-0.57744 -0.0167,-0.30128 -0.0167,-0.50213 0,-0.4017 0.0167,-0.76156 0.0251,-0.36822 0.0669,-0.71971 0.0669,-0.56908 0.19248,-1.33063 0.12553,-0.76156 0.2678,-1.61518 0.0251,-0.1339 0.0753,-0.4268 0.0586,-0.29291 0.12553,-0.66951 0.0753,-0.38496 0.15064,-0.8034 0.0837,-0.42681 0.159,-0.81177 0.0753,-0.38496 0.1339,-0.68624 0.0586,-0.30964 0.0837,-0.46028 0.0502,-0.27617 0.0753,-0.42681 0.0251,-0.15064 0.0502,-0.27617 0.0251,-0.1339 0.0586,-0.2929 0.0335,-0.15901 0.0921,-0.44355 l -0.008,0.0167 q 0.0167,-0.1339 0.10043,-0.29291 0.0837,-0.16737 0.20085,-0.30964 0.12553,-0.15064 0.27617,-0.2427 0.159,-0.10042 0.30964,-0.10042 0.35149,0 0.59419,0.16737 0.24269,0.15901 0.38496,0.39333 0.15064,0.23433 0.20922,0.50213 0.0669,0.25943 0.0669,0.46028 z"
           inkscape:connector-curvature="0" />
        <path
           id="path6001"
           style="font-style:normal;font-variant:normal;font-weight:bold;font-stretch:normal;font-size:17.13924408px;font-family:'Segoe Script';-inkscape-font-specification:'Segoe Script, Bold';font-variant-ligatures:normal;font-variant-caps:normal;font-variant-numeric:normal;font-feature-settings:normal;text-align:start;writing-mode:lr-tb;text-anchor:start;fill:#ffffff;fill-opacity:1;stroke:#ffffff;stroke-width:0.26780069;stroke-opacity:1"
           d="m 157.18099,139.04766 q 0,0.20922 -0.12554,0.35148 -0.11716,0.13391 -0.2929,0.21759 -0.17575,0.0837 -0.3766,0.12553 -0.20085,0.0335 -0.36822,0.0502 -0.62766,0.0418 -1.25532,0.11716 -0.62766,0.0669 -1.13815,0.1339 -0.50213,0.0586 -0.82851,0.10879 -0.32638,0.0418 -0.35149,0.0418 -0.0586,0.22595 -0.15064,0.56907 -0.0837,0.34312 -0.18411,0.74483 -0.0921,0.39333 -0.18411,0.81177 -0.0921,0.41007 -0.17575,0.78666 -0.0753,0.3766 -0.12553,0.68624 -0.0418,0.30128 -0.0418,0.47702 0,0.14227 0.0251,0.35986 0.0335,0.20922 0.1088,0.41007 0.0753,0.20085 0.20085,0.35149 0.12553,0.14226 0.31801,0.14226 0.1339,0 0.32638,-0.0586 0.20085,-0.0586 0.43518,-0.18411 0.24269,-0.12553 0.51049,-0.31801 0.26781,-0.20085 0.53561,-0.48539 0.0837,-0.0921 0.19248,-0.19248 0.10879,-0.10043 0.23432,-0.17575 0.12554,-0.0837 0.2678,-0.1339 0.15064,-0.0586 0.30965,-0.0586 0.25106,0 0.34312,0.10879 0.0921,0.1088 0.0921,0.27617 0,0.33475 -0.19248,0.61092 -0.19248,0.27617 -0.48539,0.61929 -0.1339,0.15901 -0.4268,0.43518 -0.28454,0.2678 -0.68624,0.5356 -0.39333,0.25943 -0.88709,0.45191 -0.48539,0.20085 -1.02936,0.20085 -0.52723,0 -0.89546,-0.14226 -0.35986,-0.1339 -0.60255,-0.35986 -0.23433,-0.21759 -0.36823,-0.50213 -0.1339,-0.2929 -0.20085,-0.59418 -0.0586,-0.30128 -0.0753,-0.59418 -0.008,-0.29291 -0.008,-0.52724 0,-0.25106 0.0502,-0.57744 0.0586,-0.33475 0.1339,-0.70298 0.0753,-0.36822 0.16737,-0.75319 0.10043,-0.39333 0.17575,-0.74482 0.0753,-0.35986 0.12553,-0.66113 0.0586,-0.30128 0.0586,-0.5105 0,-0.0502 -0.0167,-0.0921 -0.008,-0.0419 -0.0586,-0.0669 -0.0502,-0.0335 -0.15901,-0.0419 -0.10879,-0.0167 -0.30127,-0.0167 -0.21759,0 -0.46865,-0.008 -0.2427,-0.0167 -0.45192,-0.0921 -0.20922,-0.0753 -0.35148,-0.23433 -0.1339,-0.16737 -0.1339,-0.46865 0,-0.19248 0.0586,-0.31801 0.0669,-0.1339 0.16737,-0.20922 0.1088,-0.0837 0.2427,-0.11716 0.14227,-0.0335 0.30127,-0.0419 l 1.76581,-0.0753 q 0.0502,-0.0921 0.15901,-0.35986 0.10879,-0.2678 0.24269,-0.62766 0.14227,-0.36823 0.28454,-0.7783 0.14227,-0.41007 0.25943,-0.76992 0.16738,-0.51887 0.42681,-0.74482 0.25943,-0.22596 0.68624,-0.22596 0.27617,0 0.42681,0.0753 0.15064,0.0669 0.21759,0.17574 0.0669,0.1088 0.0753,0.25107 0.0167,0.1339 0.0167,0.25943 0,0.0335 -0.0502,0.19248 -0.0418,0.15901 -0.11716,0.39333 -0.0753,0.22596 -0.16738,0.50213 -0.0921,0.27617 -0.19248,0.56071 -0.0921,0.27617 -0.18411,0.5356 -0.0837,0.25106 -0.14227,0.43517 0.10042,-0.008 0.32638,-0.0335 0.23433,-0.0251 0.5356,-0.0502 0.30128,-0.0335 0.62766,-0.0586 0.33475,-0.0335 0.61929,-0.0586 0.29291,-0.0335 0.50212,-0.0502 0.21759,-0.0167 0.28454,-0.0167 0.45192,0 0.72809,0.0502 0.28453,0.0418 0.43517,0.1339 0.15064,0.0921 0.20085,0.22595 0.0502,0.1339 0.0502,0.31802 z"
           inkscape:connector-curvature="0" />
      </g>
      <path
         inkscape:connector-curvature="0"
         id="path5983"
         d="m 153.87109,150.50586 a 1.3326332,1.3326332 0 0 0 -1.33007,1.03516 c -0.0234,0.0457 -0.10073,0.17992 -0.31446,0.38476 -0.42746,0.40968 -1.4199,1.09837 -3.54101,1.73438 -4.24222,1.27201 -12.93262,2.29089 -29.98243,0.83789 -11.48335,-0.97863 -20.239696,1.19147 -26.124995,3.6289 -5.885299,2.43743 -8.992187,5.21289 -8.992187,5.21289 a 1.3326332,1.3326332 0 1 0 1.783203,1.98047 c 0,0 2.688007,-2.43583 8.228515,-4.73047 5.540508,-2.29463 13.840804,-4.37623 24.878904,-3.43554 17.22855,1.46823 26.16328,0.50126 30.97461,-0.94141 2.40567,-0.72133 3.79587,-1.57238 4.6211,-2.36328 0.41261,-0.39545 0.67831,-0.77599 0.84179,-1.0957 0.16348,-0.31972 0.24219,-0.71094 0.24219,-0.71094 a 1.3326332,1.3326332 0 0 0 -1.28516,-1.53711 z"
         style="color:#000000;font-style:normal;font-variant:normal;font-weight:normal;font-stretch:normal;font-size:medium;line-height:normal;font-family:sans-serif;font-variant-ligatures:normal;font-variant-position:normal;font-variant-caps:normal;font-variant-numeric:normal;font-variant-alternates:normal;font-feature-settings:normal;text-indent:0;text-align:start;text-decoration:none;text-decoration-line:none;text-decoration-style:solid;text-decoration-color:#000000;letter-spacing:normal;word-spacing:normal;text-transform:none;writing-mode:lr-tb;direction:ltr;text-orientation:mixed;dominant-baseline:auto;baseline-shift:baseline;text-anchor:start;white-space:normal;shape-padding:0;clip-rule:nonzero;display:inline;overflow:visible;visibility:visible;opacity:1;isolation:auto;mix-blend-mode:normal;color-interpolation:sRGB;color-interpolation-filters:linearRGB;solid-color:#000000;solid-opacity:1;vector-effect:none;fill:#ffffff;fill-opacity:1;fill-rule:nonzero;stroke:none;stroke-width:2.66499996;stroke-linecap:round;stroke-linejoin:miter;stroke-miterlimit:4;stroke-dasharray:none;stroke-dashoffset:0;stroke-opacity:1;color-rendering:auto;image-rendering:auto;shape-rendering:auto;text-rendering:auto;enable-background:accumulate" />
    </g>
  </g>
</svg>
